General
Complete name                    : Alexander.mkv
Format                           : Matroska
File size                        : 3.02 GiB
Duration                         : 2h 48mn
Overall bit rate                 : 2 567 Kbps
Writing application              : HandBrake 0.9.4

Video
ID                               : 1
Format                           : AVC
Codec ID                         : V_MPEG4/ISO/AVC
Duration                         : 2h 48mn
Bit rate                         : 1 761 Kbps
Width                            : 716 pixels
Height                           : 432 pixels
Display aspect ratio             : 2.35:1
Original display aspect ratio    : 2.35:1
Chroma subsampling               : 4:2:0
Bit depth                        : 8 bits
Scan type                        : Progressive
Bits/(Pixel*Frame)               : 0.228
Stream size                      : 2.07 GiB (69%)
Writing library                  : x264 core 79


Audio
ID                               : 2
Format                           : DTS
Format/Info                      : Digital Theater Systems
Codec ID                         : A_DTS
Duration                         : 2h 48mn
Bit rate mode                    : Constant
Bit rate                         : 755 Kbps
Channel(s)                       : 6 channels
Channel positions                : Front: L C R, Side: L R, LFE
Sampling rate                    : 48.0 KHz
Bit depth                        : 16 bits
Stream size                      : 908 MiB (29%)
Language                         : English

Text #1
Language                         : Danish

Text #2
Language                         : Finnish

Text #3
Language                         : Norwegian

Text #4
Language                         : Swedish

Menu
00:00:00.000                     : Chapter 1
00:11:42.520                     : Chapter 2
00:21:17.720                     : Chapter 3
00:29:12.400                     : Chapter 4
00:43:03.920                     : Chapter 5
00:59:19.760                     : Chapter 6
01:15:48.000                     : Chapter 7
01:26:02.040                     : Chapter 8
01:37:33.480                     : Chapter 9
01:52:22.960                     : Chapter 10
02:00:28.560                     : Chapter 11
02:11:55.200                     : Chapter 12
02:22:34.600                     : Chapter 13
02:29:30.960                     : Chapter 14
02:35:29.880                     : Chapter 15
02:40:32.680                     : Chapter 16
02:48:09.320                     : Chapter 17

